HIERARCHY
ROOT Hips
{
	OFFSET 0.000000 0.000000 0.000000 
	CHANNELS 6 Xposition Yposition Zposition Yrotation Zrotation Xrotation 
	JOINT Lumbar
	{
		OFFSET 0.000000 0.000000 0.000000 
		CHANNELS 3 Zrotation Xrotation Yrotation
		JOINT Neck
		{
			OFFSET 0.000000 0.445665 0.000000 
			CHANNELS 3 Zrotation Xrotation Yrotation
			End Site
			{
				OFFSET 0.000000 0.227535 0.000000 
			}
		}
		JOINT RightShoulder
		{
			OFFSET 0.019635 0.377685 0.194865 
			CHANNELS 3 Zrotation Xrotation Yrotation
			JOINT RightElbow
			{
				OFFSET 0.000000 -0.243375 0.000000 
				CHANNELS 2 Zrotation Yrotation
				JOINT RightWrist
				{
					OFFSET 0.000000 -0.264825 0.000000 
					CHANNELS 2 Zrotation Xrotation
					End Site
					{
						OFFSET 0.006600 -0.176220 0.000990 
					}
				}
			}
		}
		JOINT LeftShoulder
		{
			OFFSET 0.019635 0.377685 -0.194865 
			CHANNELS 3 Zrotation Xrotation Yrotation
			JOINT LeftElbow
			{
				OFFSET 0.000000 -0.243375 0.000000 
				CHANNELS 2 Zrotation Yrotation
				JOINT LeftWrist
				{
					OFFSET 0.000000 -0.264825 0.000000 
					CHANNELS 2 Zrotation Xrotation
					End Site
					{
						OFFSET 0.006600 -0.176220 -0.000990 
					}
				}
			}
		}
	}
	JOINT RightHip
	{
		OFFSET 0.052140 -0.069960 0.075570 
		CHANNELS 3 Zrotation Xrotation Yrotation
		JOINT RightKnee
		{
			OFFSET 0.000000 -0.402270 0.000000 
			CHANNELS 1 Zrotation
			JOINT RightAnkle
			{
				OFFSET 0.000000 -0.404085 0.000000 
				CHANNELS 3 Zrotation Xrotation Yrotation
				End Site
				{
					OFFSET 0.204105 -0.089430 0.008415 
				}
			}
		}
	}
	JOINT LeftHip
	{
		OFFSET 0.052140 -0.069960 -0.075570 
		CHANNELS 3 Zrotation Xrotation Yrotation
		JOINT LeftKnee
		{
			OFFSET 0.000000 -0.402270 0.000000 
			CHANNELS 1 Zrotation
			JOINT LeftAnkle
			{
				OFFSET 0.000000 -0.404085 0.000000 
				CHANNELS 3 Zrotation Xrotation Yrotation
				End Site
				{
					OFFSET 0.204105 -0.089430 -0.008415 
				}
			}
		}
	}
}
MOTION
Frames: 20
Frame Time: 0.02
0.42844 0.78132 -1.05927 117.16255 0 -4.66316 -58.06927 6.23508 30.54319 -66.57755 38.96073 -37.85462 139.49088 16.21421 13.21879 5.92602 79.99323 -2.44199 -0.9558 146.52306 29.67809 -55.63381 5.78692 -82.74332 -1.41613 3.20062 22.20753 -2.73387 -17.90899 -64.66564 15.31291 -12.28835 -9.55438 39.98396 6.4252 4.20394 -57.15347 4.21717 3.5361 5.4976
0.42636 0.78354 -1.06003 117.39181 0 -4.92594 -58.06927 6.70944 30.33378 -66.57757 38.96078 -38.09658 139.44436 16.21478 21.37367 7.31908 80.71414 -1.76581 -1.00484 146.62363 30.3527 -55.63382 5.78692 -82.86829 -1.34651 2.93344 21.78094 -2.48618 -17.96875 -64.02258 15.05878 -11.93312 -9.5145 39.71824 6.6017 4.33363 -56.78867 4.23088 3.44977 5.22499
0.42422 0.78626 -1.06079 117.54846 0 -5.24547 -58.06927 7.1001 30.06505 -66.5776 38.96085 -38.50808 139.35902 16.21447 30.11118 9.08905 81.62024 -0.8774 -1.12145 146.86051 31.31983 -55.63382 5.78691 -82.97212 -1.25642 2.63259 21.30588 -2.17546 -18.042 -63.24466 14.74959 -11.46734 -9.41704 39.41402 6.87168 4.50355 -56.37092 4.21472 3.35532 4.94604
0.42209 0.78873 -1.06154 117.72653 0 -5.53284 -58.06927 7.50944 29.83427 -66.57762 38.96092 -38.82635 139.29191 16.2146 38.35943 10.63663 82.41617 -0.1166 -1.20237 147.02413 32.13121 -55.63381 5.78691 -83.08238 -1.18029 2.35341 20.85714 -1.90199 -18.10851 -62.53358 14.4731 -11.05883 -9.34048 39.12908 7.0898 4.64568 -55.98267 4.21204 3.27036 4.6879
0.41999 0.79134 -1.06233 117.95454 0 -5.84815 -58.06927 8.00567 29.55825 -66.57765 38.96099 -39.20672 139.22281 16.21465 47.64889 12.40358 83.32671 0.7752 -1.30248 147.23107 33.03821 -55.63384 5.78691 -83.20628 -1.08665 2.04435 20.38623 -1.59096 -18.17946 -61.7915 14.16259 -10.61801 -9.28547 38.83385 7.34706 4.82613 -55.5662 4.20742 3.16099 4.35401
0.41784 0.79375 -1.06303 118.06218 0 -6.11777 -58.06927 8.30022 29.36134 -66.57766 38.96104 -39.50231 139.14933 16.21463 54.87856 13.79946 84.04144 1.44417 -1.37868 147.38297 33.8157 -55.6338 5.7869 -83.29679 -1.02287 1.79156 19.95216 -1.34426 -18.24363 -61.08643 13.91055 -10.21948 -9.17283 38.5522 7.54481 4.93794 -55.19793 4.20063 3.10002 4.17496
0.41551 0.79551 -1.06346 117.83889 0 -6.25456 -58.06927 8.04395 29.40456 -66.57765 38.96099 -39.49825 139.06234 16.21467 56.19487 14.10742 84.16023 1.45373 -1.38098 147.33546 34.16472 -55.63354 5.78692 -83.29846 -1.0581 1.6913 19.6243 -1.28286 -18.28579 -60.49765 13.83282 -9.96245 -8.90728 38.31512 7.55968 4.83909 -54.97653 4.19543 3.18075 4.4432
0.41313 0.79703 -1.06378 117.49958 0 -6.34209 -58.06927 7.58933 29.528 -66.57762 38.96092 -39.40783 138.97399 16.21467 55.41848 14.02423 84.07655 1.231 -1.35567 147.23073 34.37314 -55.63322 5.78693 -83.2675 -1.12194 1.65101 19.3372 -1.28968 -18.32018 -59.95531 13.8162 -9.75288 -8.58748 38.09407 7.51082 4.67196 -54.8064 4.18945 3.30947 4.86439
0.41079 0.79863 -1.06414 117.22377 0 -6.44735 -58.06927 7.23408 29.60997 -66.5776 38.96086 -39.37356 138.8934 16.21467 55.64114 14.09997 84.09129 1.10892 -1.33765 147.1621 34.64572 -55.63294 5.78695 -83.25266 -1.16476 1.59105 19.03659 -1.27067 -18.35817 -59.40474 13.77221 -9.52305 -8.29724 37.86733 7.48827 4.54368 -54.61258 4.18392 3.41223 5.20387
0.40836 0.80036 -1.06453 116.9002 0 -6.57402 -58.06927 6.8372 29.71117 -66.57758 38.96079 -39.27472 138.78186 16.21469 55.68641 14.26499 84.08574 1.0126 -1.344 147.05631 34.92793 -55.63262 5.78696 -83.23179 -1.24011 1.49859 18.71246 -1.22844 -18.39733 -58.79429 13.72445 -9.28248 -7.983 37.63155 7.47979 4.38397 -54.41709 4.17661 3.53196 5.59449
0.40612 0.80176 -1.06484 116.64924 0 -6.64394 -58.06927 6.48082 29.79196 -66.57756 38.96073 -39.2865 138.73429 16.21469 55.59232 14.1505 84.07168 0.8077 -1.29235 147.01159 35.15221 -55.63237 5.78698 -83.21583 -1.25557 1.48763 18.44839 -1.25058 -18.43084 -58.32224 13.69993 -9.07864 -7.70824 37.42005 7.42615 4.27275 -54.2397 4.17358 3.62817 5.91515
0.40438 0.80232 -1.06497 116.62971 0 -6.56654 -58.06927 6.28684 29.79866 -66.57755 38.96073 -39.63402 138.86958 16.21469 55.65046 13.32277 84.08506 0.33352 -1.08618 147.15708 35.25493 -55.63232 5.787 -83.22302 -1.09169 1.69464 18.33414 -1.44288 -18.46079 -58.21458 13.72358 -8.95089 -7.54201 37.26248 7.25857 4.31352 -54.08544 4.17968 3.64496 6.00427
0.40284 0.80254 -1.06503 116.6872 0 -6.4341 -58.06927 6.14069 29.78211 -66.57756 38.96073 -40.09306 139.06827 16.21469 55.63243 12.23327 84.09597 -0.23773 -0.82293 147.36373 35.30184 -55.63234 5.78703 -83.23607 -0.86799 1.98019 18.28022 -1.69619 -18.48359 -58.24638 13.76888 -8.86133 -7.42006 37.1307 7.04819 4.40472 -53.95055 4.19082 3.637 6.01807
0.40123 0.80289 -1.06511 116.70808 0 -6.3281 -58.06927 5.97143 29.77507 -66.57755 38.96072 -40.49449 139.23443 16.21469 55.62984 11.28482 84.10575 -0.74878 -0.58566 147.53699 35.37039 -55.63234 5.78705 -83.24557 -0.67625 2.22521 18.203 -1.916 -18.50266 -58.21937 13.80537 -8.76417 -7.28741 36.9934 6.86009 4.4721 -53.81653 4.2017 3.64218 6.06685
0.39953 0.80336 -1.06522 116.73143 0 -6.21371 -58.06927 5.80011 29.77469 -66.57756 38.96075 -40.92321 139.41674 16.21469 55.63644 10.2257 84.1168 -1.3371 -0.34549 147.73273 35.45056 -55.63231 5.78708 -83.25782 -0.46512 2.49346 18.11015 -2.16274 -18.55001 -58.17509 13.84004 -8.62845 -7.11388 36.83055 6.65785 4.54208 -53.64363 4.20394 3.64097 6.11725
0.39805 0.80349 -1.06526 116.76973 0 -6.1052 -58.06927 5.64813 29.75455 -66.57755 38.9607 -41.3215 139.57983 16.21469 55.63197 9.34503 84.12887 -1.78279 -0.10043 147.89596 35.49429 -55.63236 5.7871 -83.26594 -0.28011 2.7303 18.06322 -2.36673 -18.53801 -58.19869 13.88234 -8.58022 -7.03571 36.72673 6.47575 4.61806 -53.55538 4.22543 3.64664 6.14508
0.39711 0.80273 -1.06516 116.82878 0 -6.0192 -58.06926 5.52929 29.67954 -66.57745 38.96042 -41.6186 139.68035 16.21469 55.63331 8.97777 84.13033 -1.82573 0.16423 147.96291 35.45812 -55.63263 5.78707 -83.26351 -0.17932 2.86887 18.13188 -2.43977 -18.35394 -58.38075 13.9447 -8.77527 -7.21887 36.78033 6.35967 4.71152 -53.69822 4.29864 3.67642 6.12227
0.39637 0.80163 -1.065 116.90107 0 -5.9425 -58.06926 5.4307 29.58613 -66.57732 38.96007 -41.87977 139.75837 16.21469 55.63336 8.80807 84.1361 -1.71852 0.42827 147.99397 35.38664 -55.63297 5.78704 -83.25661 -0.10732 2.97155 18.24371 -2.46706 -18.11231 -58.62492 14.01303 -9.05477 -7.49498 36.89212 6.2657 4.80747 -53.92477 4.39111 3.71384 6.07965
0.39554 0.8007 -1.06486 116.96911 0 -5.86663 -58.06925 5.32966 29.5047 -66.57722 38.95977 -42.15109 139.84258 16.21469 55.63281 8.57974 84.15061 -1.66829 0.67897 148.03591 35.32728 -55.63326 5.787 -83.25019 -0.02356 3.08516 18.33342 -2.51346 -17.90355 -58.83734 14.07536 -9.28809 -7.7232 36.97688 6.16189 4.8935 -54.11161 4.47494 3.74818 6.05001
0.39474 0.79969 -1.06473 117.03259 0 -5.76787 -58.06925 5.20232 29.40734 -66.57708 38.95938 -42.45217 139.94547 16.21469 55.63305 8.21509 84.12145 -1.66636 0.98803 148.10193 35.28215 -55.6336 5.78697 -83.24983 0.06823 3.22366 18.43631 -2.56868 -17.66608 -59.0704 14.15184 -9.55561 -7.97729 37.06553 6.05549 5.017 -54.30696 4.55846 3.78028 6.00189
